grf
version=1
nRows=7
nColumns=37
inDegrees=no
endheader
time	ground_force_1_vx	ground_force_1_vy	ground_force_1_vz	ground_force_1_px	ground_force_1_py	ground_force_1_pz	ground_moment_1_mx	ground_moment_1_my	ground_moment_1_mz	ground_force_2_vx	ground_force_2_vy	ground_force_2_vz	ground_force_2_px	ground_force_2_py	ground_force_2_pz	ground_moment_2_mx	ground_moment_2_my	ground_moment_2_mz	ground_force_3_vx	ground_force_3_vy	ground_force_3_vz	ground_force_3_px	ground_force_3_py	ground_force_3_pz	ground_moment_3_mx	ground_moment_3_my	ground_moment_3_mz	ground_force_4_vx	ground_force_4_vy	ground_force_4_vz	ground_force_4_px	ground_force_4_py	ground_force_4_pz	ground_moment_4_mx	ground_moment_4_my	ground_moment_4_mz
      6.73000000	      0.00000000	     -0.00000000	      0.00000000	      0.00000000	      0.00000000	      0.00000000	      0.00000000	      0.00000000	      0.00000000	      4.47449112	     68.78642273	   -402.96734619	   -276.27774791	  -1168.82627502	      0.00000000	      0.00000000	      0.00000000	   1758.39856936	     -0.36836373	    -71.15135190	   -422.47344971	   -226.62716435	   -534.78140664	      0.00000000	     -0.00000000	     -0.00000000	  -1392.66630009	      0.00000000	     -0.00000000	      0.00000000	      0.00000000	      0.00000000	      0.00000000	      0.00000000	      0.00000000	      0.00000000
      6.74000000	      0.00000000	     -0.00000000	      0.00000000	      0.00000000	      0.00000000	      0.00000000	      0.00000000	      0.00000000	      0.00000000	      5.19334698	     69.11214447	   -405.44201660	   -277.27053656	  -1167.49404751	      0.00000000	      0.00000000	      0.00000000	   1630.10053501	     -0.58742759	    -71.33052058	   -426.58776855	   -226.92142442	   -535.85065340	      0.00000000	     -0.00000000	     -0.00000000	  -1382.47918442	      0.00000000	     -0.00000000	      0.00000000	      0.00000000	      0.00000000	      0.00000000	      0.00000000	      0.00000000	      0.00000000
      6.75000000	      0.00000000	     -0.00000000	      0.00000000	      0.00000000	      0.00000000	      0.00000000	      0.00000000	      0.00000000	      0.00000000	      6.83161879	     69.16519165	   -409.25485229	   -279.88694052	  -1166.45956049	      0.00000000	      0.00000000	      0.00000000	   1766.80763301	     -0.78316540	    -71.68331139	   -430.15478516	   -228.73872689	   -536.01915132	      0.00000000	     -0.00000000	     -0.00000000	  -1547.82429285	      0.00000000	     -0.00000000	      0.00000000	      0.00000000	      0.00000000	      0.00000000	      0.00000000	      0.00000000	      0.00000000
      6.76000000	      0.00000000	     -0.00000000	      0.00000000	      0.00000000	      0.00000000	      0.00000000	      0.00000000	      0.00000000	      0.00000000	      7.19016075	     69.77169800	   -409.83081055	   -280.66782036	  -1165.44822112	      0.00000000	      0.00000000	      0.00000000	   1613.52369453	     -1.41937891	    -72.68875110	   -429.52432251	   -229.06844337	   -535.93623212	      0.00000000	      0.00000000	     -0.00000000	  -1469.54736679	      0.00000000	     -0.00000000	      0.00000000	      0.00000000	      0.00000000	      0.00000000	      0.00000000	      0.00000000	      0.00000000
      6.77000000	      0.00000000	     -0.00000000	      0.00000000	      0.00000000	      0.00000000	      0.00000000	      0.00000000	      0.00000000	      0.00000000	      7.26147413	     70.35960388	   -412.16101074	   -281.98772014	  -1165.36424524	      0.00000000	      0.00000000	      0.00000000	   1750.08765809	     -2.59071615	    -73.89098336	   -432.67239380	   -229.19612178	   -535.62038491	      0.00000000	      0.00000000	     -0.00000000	  -1644.82483210	      0.00000000	     -0.00000000	      0.00000000	      0.00000000	      0.00000000	      0.00000000	      0.00000000	      0.00000000	      0.00000000
      6.78000000	      0.00000000	     -0.00000000	      0.00000000	      0.00000000	      0.00000000	      0.00000000	      0.00000000	      0.00000000	      0.00000000	      7.26139688	     70.91192627	   -418.37719727	   -282.91904582	  -1165.75353116	      0.00000000	      0.00000000	      0.00000000	   1704.46604735	     -4.16941352	    -75.77999079	   -439.30261230	   -230.14144981	   -535.50856390	      0.00000000	      0.00000000	     -0.00000000	  -1603.91311300	      0.00000000	     -0.00000000	      0.00000000	      0.00000000	      0.00000000	      0.00000000	      0.00000000	      0.00000000	      0.00000000
      6.79000000	      0.00000000	     -0.00000000	      0.00000000	      0.00000000	      0.00000000	      0.00000000	      0.00000000	      0.00000000	      0.00000000	      7.99343252	     72.30377960	   -424.31311035	   -284.07216282	  -1165.70296576	      0.00000000	      0.00000000	      0.00000000	   1632.00125162	     -4.77241389	    -78.16411549	   -450.33715820	   -231.09343645	   -537.41772094	      0.00000000	      0.00000000	     -0.00000000	  -1641.66428108	      0.00000000	     -0.00000000	      0.00000000	      0.00000000	      0.00000000	      0.00000000	      0.00000000	      0.00000000	      0.00000000
